<svg width="20" height="20" viewBox="0 0 20 20" fill="none" xmlns="http://www.w3.org/2000/svg">
<path d="M16 8.75C16 6.82718 15.2366 4.98269 13.877 3.62305C12.5173 2.26341 10.6728 1.5 8.75 1.5C6.82718 1.5 4.98269 2.26341 3.62305 3.62305C2.26341 4.98269 1.5 6.82718 1.5 8.75C1.5 10.6728 2.26341 12.5173 3.62305 13.877C4.98269 15.2366 6.82718 16 8.75 16C10.6728 16 12.5173 15.2366 13.877 13.877C15.2366 12.5173 16 10.6728 16 8.75ZM17.5 8.75C17.5 10.8193 16.7645 12.8108 15.4424 14.3818L19.2803 18.2197C19.5732 18.5126 19.5732 18.9874 19.2803 19.2803C18.9874 19.5732 18.5126 19.5732 18.2197 19.2803L14.3818 15.4424C12.8108 16.7645 10.8193 17.5 8.75 17.5C6.42936 17.5 4.20344 16.5784 2.5625 14.9375C0.921557 13.2966 0 11.0706 0 8.75C0 6.42936 0.921557 4.20344 2.5625 2.5625C4.20344 0.921557 6.42936 0 8.75 0C11.0706 0 13.2966 0.921557 14.9375 2.5625C16.5784 4.20344 17.5 6.42936 17.5 8.75Z" fill="black"></path>
</svg>