<svg width="16" height="19" viewBox="0 0 16 19" fill="none" xmlns="http://www.w3.org/2000/svg">
<path d="M12 5.75C12 4.62283 11.5519 3.54215 10.7549 2.74512C9.95785 1.94809 8.87717 1.5 7.75 1.5C6.62283 1.5 5.54215 1.94809 4.74512 2.74512C3.94809 3.54215 3.5 4.62283 3.5 5.75C3.5 6.87717 3.94809 7.95785 4.74512 8.75488C5.54215 9.55191 6.62283 10 7.75 10C8.87717 10 9.95785 9.55191 10.7549 8.75488C11.5519 7.95785 12 6.87717 12 5.75ZM13.5 5.75C13.5 7.27499 12.8938 8.7371 11.8154 9.81543C10.7371 10.8938 9.27499 11.5 7.75 11.5C6.22501 11.5 4.7629 10.8938 3.68457 9.81543C2.60624 8.7371 2 7.27499 2 5.75C2 4.22501 2.60624 2.7629 3.68457 1.68457C4.7629 0.606236 6.22501 0 7.75 0C9.27499 0 10.7371 0.606236 11.8154 1.68457C12.8938 2.7629 13.5 4.22501 13.5 5.75Z" fill="black"></path>
<path d="M14 17.75C14 16.9293 13.8385 16.1166 13.5244 15.3584C13.2103 14.6001 12.7493 13.9114 12.1689 13.3311C11.5886 12.7507 10.8999 12.2897 10.1416 11.9756C9.38338 11.6615 8.57069 11.5 7.75 11.5C6.92931 11.5 6.11663 11.6615 5.3584 11.9756C4.60011 12.2897 3.91142 12.7507 3.33105 13.3311C2.75069 13.9114 2.28968 14.6001 1.97559 15.3584C1.66155 16.1166 1.5 16.9293 1.5 17.75C1.5 18.1642 1.16421 18.5 0.75 18.5C0.335786 18.5 0 18.1642 0 17.75C0 16.7323 0.200373 15.7245 0.589844 14.7842C0.979318 13.8439 1.54988 12.9892 2.26953 12.2695C2.98919 11.5499 3.84391 10.9793 4.78418 10.5898C5.72445 10.2004 6.73226 10 7.75 10C8.76774 10 9.77555 10.2004 10.7158 10.5898C11.6561 10.9793 12.5108 11.5499 13.2305 12.2695C13.9501 12.9892 14.5207 13.8439 14.9102 14.7842C15.2996 15.7245 15.5 16.7323 15.5 17.75C15.5 18.1642 15.1642 18.5 14.75 18.5C14.3358 18.5 14 18.1642 14 17.75Z" fill="black"></path>
</svg>